<?xml version="1.0" encoding="UTF-8" standalone="no"?>
<!DOCTYPE svg PUBLIC "-//W3C//DTD SVG 1.1//EN" "http://www.w3.org/Graphics/SVG/1.1/DTD/svg11.dtd">
<svg width="100%" height="100%" viewBox="0 0 802 782" version="1.1" xmlns="http://www.w3.org/2000/svg" xmlns:xlink="http://www.w3.org/1999/xlink" xml:space="preserve" style="fill-rule:evenodd;clip-rule:evenodd;stroke-linejoin:round;stroke-miterlimit:1.41421;">
    <g transform="matrix(1,0,0,1,-3,-126)">
        <path d="M3,153L31,135C31,135 83.139,211.114 108,234C132.861,256.886 164.669,293 212,293C234.683,293 247,280.05 247,259C247,237.95 237.655,221.775 251,189C264.345,156.225 298.072,126 350,126C401.928,126 468,160.501 468,244C468,327.499 402.068,389 308,389C213.932,389 148.983,346.327 90,280C53.628,239.099 3,153 3,153Z" style="fill:rgb(0,157,223);"/>
    </g>
    <g transform="matrix(1,0,0,1,-3,-126)">
        <path d="M261,483C261,483 282.099,491 314,491C366.491,491 395,467 395,467C395,467 395,634.22 395,670C395,723.192 408.532,804 525,804C661.789,804 675,717.193 675,655C675,592.807 675,249 675,249L805,249C805,249 805,538.237 805,645C805,816.415 695.225,908 528,908C376.661,908 261,830.51 261,670C261,607.701 261,483 261,483Z" style="fill:rgb(42,51,62);"/>
    </g>
</svg>
